HIERARCHY
ROOT 0x4F9D
{
	OFFSET 0.000000 0.000000 0.000000
	CHANNELS 6 Xposition Yposition Zposition Xrotation Yrotation Zrotation
	End Site
	{
		OFFSET 0 0 0
	}
}
ROOT 0x686E
{
	OFFSET 0.000000 0.000000 0.000000
	CHANNELS 6 Xposition Yposition Zposition Xrotation Yrotation Zrotation
	End Site
	{
		OFFSET 0 0 0
	}
}
ROOT 0x687A
{
	OFFSET 0.000000 0.000000 0.000000
	CHANNELS 6 Xposition Yposition Zposition Xrotation Yrotation Zrotation
	End Site
	{
		OFFSET 0 0 0
	}
}
ROOT 0x6E0E
{
	OFFSET 0.000000 0.000000 0.000000
	CHANNELS 6 Xposition Yposition Zposition Xrotation Yrotation Zrotation
	End Site
	{
		OFFSET 0 0 0
	}
}
ROOT 0x6E1A
{
	OFFSET 0.000000 0.000000 0.000000
	CHANNELS 6 Xposition Yposition Zposition Xrotation Yrotation Zrotation
	End Site
	{
		OFFSET 0 0 0
	}
}
ROOT 0x91D7
{
	OFFSET 0.000000 0.000000 0.000000
	CHANNELS 3 Xrotation Yrotation Zrotation
	End Site
	{
		OFFSET 0 0 0
	}
}
ROOT 0xB8EC
{
	OFFSET 0.000000 0.000000 0.000000
	CHANNELS 6 Xposition Yposition Zposition Xrotation Yrotation Zrotation
	End Site
	{
		OFFSET 0 0 0
	}
}
ROOT 0xB8EF
{
	OFFSET 0.000000 0.000000 0.000000
	CHANNELS 3 Xrotation Yrotation Zrotation
	End Site
	{
		OFFSET 0 0 0
	}
}
ROOT 0xB8F0
{
	OFFSET 0.000000 0.000000 0.000000
	CHANNELS 3 Xrotation Yrotation Zrotation
	End Site
	{
		OFFSET 0 0 0
	}
}
ROOT chassis
{
	OFFSET 0.000000 0.000000 0.000000
	CHANNELS 6 Xposition Yposition Zposition Xrotation Yrotation Zrotation
	JOINT soft_2
	{
		OFFSET -56.441689 11.529259 -0.000033
		CHANNELS 3 Xrotation Yrotation Zrotation
		JOINT soft_3
		{
			OFFSET 0.000013 -0.000000 12.739814
			CHANNELS 3 Xrotation Yrotation Zrotation
			JOINT soft_6
			{
				OFFSET 2.139547 0.000009 12.505010
				CHANNELS 3 Xrotation Yrotation Zrotation
				JOINT soft_7
				{
					OFFSET 0.000002 -0.000000 5.175319
					CHANNELS 3 Xrotation Yrotation Zrotation
					JOINT soft_8
					{
						OFFSET -0.000000 0.000000 5.269966
						CHANNELS 3 Xrotation Yrotation Zrotation
						JOINT soft_9
						{
							OFFSET 0.000002 0.000000 9.155548
							CHANNELS 3 Xrotation Yrotation Zrotation
							JOINT soft_11
							{
								OFFSET -0.000009 -0.000000 3.405280
								CHANNELS 3 Xrotation Yrotation Zrotation
								JOINT soft_12
								{
									OFFSET 0.000007 0.000000 10.642006
									CHANNELS 3 Xrotation Yrotation Zrotation
									JOINT soft_13
									{
										OFFSET -0.000009 0.000000 5.321798
										CHANNELS 3 Xrotation Yrotation Zrotation
										JOINT soft_14
										{
											OFFSET 0.000006 0.000000 5.373929
											CHANNELS 3 Xrotation Yrotation Zrotation
											End Site
											{
												OFFSET 0 0 0
											}
										}
									}
								}
							}
						}
					}
				}
			}
		}
	}
}
ROOT 0xDADC
{
	OFFSET 0.000000 0.000000 0.000000
	CHANNELS 6 Xposition Yposition Zposition Xrotation Yrotation Zrotation
	End Site
	{
		OFFSET 0 0 0
	}
}
ROOT [tags]
{
	OFFSET 0.000000 0.000000 0.000000
	CHANNELS 3 Xrotation Yrotation Zrotation
	End Site
	{
		OFFSET 0 0 0
	}
}
ROOT [tags]
{
	OFFSET 0.000000 0.000000 0.000000
	CHANNELS 3 Xrotation Yrotation Zrotation
	End Site
	{
		OFFSET 0 0 0
	}
}
MOTION
Frames:    9
Frame Time: 0.033333
-29.90803142 9.42307185 -30.53606224 -72.32704924 0.00000853 90.00008392 -33.79346467 7.60306975 4.22834634 -72.32704924 0.00000853 90.00008392 -29.90803142 9.42307185 -30.53606224 -72.32704924 0.00000853 90.00008392 -33.79346467 7.7737012 -3.67074749 -109.3591461 -0.00001195 89.99995419 -27.6816921 9.59366131 31.09366226 -109.3591461 -0.00001195 89.99995419 0 -0.00017075 0 -25.19212723 9.58157348 0 -90 -14.73177529 -0.00006179 0 13.70847512 0 0 -0.3350759 0 0 0 0 0 0 0 0.0000484 66.85409544 -0.00002584 0 6.76604987 0 0 2.84174536 0 0 12.75358487 0 0 0.51993107 0 0 1.66530654 0 0 -0.5728982 0 0 1.71870101 0 0 -1.14568638 0 0 7.84961651 0 -27.6816921 9.59366131 31.09366226 -109.3591461 -0.00001195 89.99995419 0 0 0 0 0 0
-29.90803333 9.42307185 -30.53606605 -72.32704924 0.00000853 90.00008392 -33.79346467 7.60307071 4.22834634 -72.32704924 0.00000853 90.00008392 -29.90803333 9.42307185 -30.53606605 -72.32704924 0.00000853 90.00008392 -33.79346467 7.7737012 -3.67074749 -109.3591461 -0.00001195 89.99995419 -27.6816921 9.59366131 31.09366417 -109.3591461 -0.00001195 89.99995419 0 -0.00017075 0 -25.19212723 9.58157348 0 -90 -14.73177529 -0.00006179 0 13.70847607 0 0 -0.3350759 0 0 0 0 0 0 0 0.0000484 66.85409544 -0.00002584 0 6.76604987 0 0 2.8417456 0 0 12.75358487 0 0 0.51993107 0 0 1.66530654 0 0 -0.5728982 0 0 1.71870113 0 0 -1.1456865 0 0 7.84961699 0 -27.6816921 9.59366131 31.09366417 -109.3591461 -0.00001195 89.99995419 0 0 0 0 0 0
-29.90803333 9.42307185 -30.53606605 -72.32704924 0.00000853 90.00008392 -33.79346467 7.60306975 4.22834634 -72.32704924 0.00000853 90.00008392 -29.90803333 9.42307185 -30.53606605 -72.32704924 0.00000853 90.00008392 -33.79346467 7.7737012 -3.67074749 -109.3591461 -0.00001195 89.99995419 -27.6816921 9.59366131 31.09366417 -109.3591461 -0.00001195 89.99995419 0 -0.00017075 0 -25.19212723 9.58157444 0 -90 -14.73177529 -0.00006179 0 13.70847607 0 0 -0.33507593 0 0 0 0 0 0 0 0.0000484 66.8541107 -0.00002584 0 6.76604987 0 0 2.8417456 0 0 12.75358487 0 0 0.51993095 0 0 1.66530666 0 0 -0.5728982 0 0 1.71870113 0 0 -1.14568638 0 0 7.84961651 0 -27.6816921 9.59366131 31.09366417 -109.3591461 -0.00001195 89.99995419 0 0 0 0 0 0
-29.90803142 9.42307185 -30.53606224 -72.32703398 0.00000341 90.00008392 -33.79346467 7.60306975 4.22834634 -72.32703398 0.00000341 90.00008392 -29.90803142 9.42307185 -30.53606224 -72.32703398 0.00000341 90.00008392 -33.79346467 7.7737012 -3.67074749 -109.3591461 -0.00001195 89.99995419 -27.6816921 9.59366131 31.09366226 -109.3591461 -0.00001195 89.99995419 0 -0.00017075 0 -25.19212723 9.58157444 0 -90.00000762 -14.7317772 -0.00006179 0 13.70847512 0 0 -0.3350759 0 0 0 0 0 0 0 0.0000484 66.85408019 -0.00002584 0 6.76604987 0 0 2.84174536 0 0 12.75358487 0 0 0.51993101 0 0 1.6653063 0 0 -0.5728982 0 0 1.71870101 0 0 -1.14568638 0 0 7.84961699 0 -27.6816921 9.59366131 31.09366226 -109.3591461 -0.00001195 89.99995419 0 0 0 0 0 0
-29.90803142 9.42307185 -30.53606224 -72.32704924 0.00000853 90.00008392 -33.79346467 7.60306975 4.22834634 -72.32704924 0.00000853 90.00008392 -29.90803142 9.42307185 -30.53606224 -72.32704924 0.00000853 90.00008392 -33.79346467 7.7737012 -3.67074749 -109.3591461 -0.00001195 89.99995419 -27.6816921 9.59366131 31.09366417 -109.3591461 -0.00001195 89.99995419 0 -0.00017075 0 -25.19212913 9.58157348 0 -90 -14.73177529 -0.00006179 0 13.70847512 0 0 -0.33507587 0 0 0 0 0 0 0 0.0000484 66.85409544 -0.00002584 0 6.76604987 0 0 2.84174536 0 0 12.75358487 0 0 0.51993107 0 0 1.66530654 0 0 -0.5728982 0 0 1.71870101 0 0 -1.14568638 0 0 7.84961699 0 -27.6816921 9.59366131 31.09366417 -109.3591461 -0.00001195 89.99995419 0 0 0 0 0 0
-29.90803142 9.42307185 -30.53606224 -72.32704924 0.00000853 90.00008392 -33.79346467 7.60306975 4.22834634 -72.32704924 0.00000853 90.00008392 -29.90803142 9.42307185 -30.53606224 -72.32704924 0.00000853 90.00008392 -33.79346467 7.7737012 -3.67074749 -109.3591461 -0.00001195 89.99995419 -27.6816921 9.59366131 31.09366226 -109.3591461 -0.00001195 89.99995419 0 -0.00017075 0 -25.19212723 9.58157253 0 -90 -14.7317772 -0.00006179 0 13.70847512 0 0 -0.3350759 0 0 0 0 0 0 0 0.0000484 66.85409544 -0.00002584 0 6.76604939 0 0 2.84174536 0 0 12.75358487 0 0 0.51993107 0 0 1.66530654 0 0 -0.5728982 0 0 1.71870101 0 0 -1.14568638 0 0 7.84961651 0 -27.6816921 9.59366131 31.09366226 -109.3591461 -0.00001195 89.99995419 0 0 0 0 0 0
-29.90803142 9.41046237 -30.53606224 -72.32704924 0.00000853 90.00008392 -33.79346467 7.59060001 4.22834634 -72.32704924 0.00000853 90.00008392 -29.90803142 9.41046237 -30.53606224 -72.32704924 0.00000853 90.00008392 -33.79346467 7.76121379 -3.67074749 -109.3591461 -0.00001195 89.99995419 -27.6816921 9.58039856 31.09366226 -109.3591461 -0.00001195 89.99995419 0 -0.00017075 0 -25.19212723 9.58157348 0 -90 -14.73177529 -0.00006267 0 13.70847417 0 0 -0.33507593 0 0 0 0 0 0 0 0.0000484 66.85409544 -0.00002584 0 6.76605035 0 0 2.84174536 0 0 12.75358487 0 0 0.51993107 0 0 1.66530654 0 0 -0.5728982 0 0 1.71870113 0 0 -1.14568638 0 0 7.84961651 0 -27.6816921 9.58039856 31.09366226 -109.3591461 -0.00001195 89.99995419 0 0 0 0 0 0
-29.90803142 9.39785193 -30.54714775 -72.32704924 0.00000853 90.00008392 -33.79346467 7.57812881 4.21617412 -72.32704924 0.00000853 90.00008392 -29.90803142 9.39785193 -30.54714775 -72.32704924 0.00000853 90.00008392 -33.79346467 7.74872733 -3.6577327 -109.3591461 -0.00001195 89.99995419 -27.6816921 9.56713676 31.10515594 -109.3591461 -0.00001195 89.99995419 0 -0.00017075 0 -25.19212723 9.58157348 0 -90 -14.73177529 -0.00006267 0 13.70847512 0 0 -0.3350759 0 0 0 0 0 0 0 0.0000484 66.85409544 -0.00002584 0 6.76604939 0 0 2.84174584 0 0 12.75358487 0 0 0.51993107 0 0 1.66530654 0 0 -0.5728982 0 0 1.71870125 0 0 -1.1456865 0 0 7.84961651 0 -27.6816921 9.56713676 31.10515594 -109.3591461 -0.00001195 89.99995419 0 0 0 0 0 0
-29.92030712 9.37263106 -30.54714775 -72.36570738 0.01347937 89.98166653 -33.79346467 7.55318737 4.21617412 -72.36570738 0.01347937 89.98166653 -29.92030712 9.37263106 -30.54714775 -72.36570738 0.01347937 89.98166653 -33.79346467 7.72375298 -3.6577327 -109.32045744 0.01292954 90.01821136 -27.69307706 9.54061126 31.10515594 -109.32045744 0.01292954 90.01821136 0 -0.00017075 0 -25.19212723 9.58157348 0 -90.00000762 -14.73177911 -0.00006091 0 13.70847512 0 0 -0.3350759 0 0 0 0 0 0 0 0.0000484 66.85409544 -0.00002584 0 6.76604987 0 0 2.84174536 0 0 12.75358296 0 0 0.51993107 0 0 1.66530654 0 0 -0.5728982 0 0 1.71870089 0 0 -1.1456865 0 0 7.84961651 0 -27.69307706 9.54061126 31.10515594 -109.32045744 0.01292954 90.01821136 0 0 0 0 0 0
